<?xml version="1.0" standalone="no"?>
<!DOCTYPE svg PUBLIC "-//W3C//DTD SVG 20010904//EN"
 "http://www.w3.org/TR/2001/REC-SVG-20010904/DTD/svg10.dtd">
<svg version="1.0" xmlns="http://www.w3.org/2000/svg"
 width="377.000000pt" height="377.000000pt" viewBox="0 0 377.000000 377.000000"
 preserveAspectRatio="xMidYMid meet">
<metadata>
Created by potrace 1.14, written by Peter Selinger 2001-2017
</metadata>
<g transform="translate(0.000000,377.000000) scale(0.100000,-0.100000)"
fill="#000000" stroke="none">
<path d="M1690 3549 c-19 -4 -48 -10 -65 -13 -16 -3 -61 -15 -99 -26 -441
-127 -796 -424 -999 -835 -39 -80 -100 -238 -113 -298 -27 -115 -44 -257 -43
-339 l1 -98 73 0 c50 0 72 4 72 13 3 70 14 202 19 232 63 396 268 730 592 962
134 96 361 201 492 227 64 12 139 25 180 31 52 6 263 7 300 1 14 -3 43 -7 65
-10 151 -22 234 -46 395 -119 245 -109 481 -322 628 -565 33 -54 102 -197 102
-211 0 -4 6 -21 14 -37 17 -33 52 -164 61 -226 4 -24 8 -46 11 -49 2 -4 6 -56
10 -115 3 -60 7 -114 9 -120 5 -16 133 -18 149 -2 14 15 18 86 5 94 -5 3 -6
11 -2 17 10 16 13 38 4 33 -4 -3 -15 50 -24 117 -48 342 -202 645 -457 897
-212 210 -479 355 -781 426 -58 13 -129 18 -319 19 -135 2 -261 -1 -280 -6z"/>
<path d="M1849 3305 c-2 -1 -33 -6 -69 -9 -36 -4 -83 -11 -105 -17 -22 -5 -51
-12 -64 -15 -82 -17 -264 -98 -366 -162 -359 -225 -613 -664 -617 -1067 -1
-101 -7 -94 75 -93 47 0 74 5 75 12 0 6 3 47 7 91 23 296 135 550 333 752 176
180 409 301 657 341 53 9 319 8 370 -1 92 -16 104 -20 228 -65 411 -148 720
-559 752 -1002 1 -19 3 -56 4 -82 l1 -48 69 0 c43 0 72 5 78 13 20 25 3 211
-32 348 -91 362 -323 660 -660 849 -100 56 -274 116 -405 141 -59 10 -323 22
-331 14z"/>
<path d="M1773 3045 c-270 -49 -509 -195 -679 -415 -28 -36 -54 -72 -58 -80
-3 -8 -18 -35 -32 -60 -73 -129 -117 -285 -128 -455 -7 -92 -5 -94 68 -94 34
0 67 4 73 7 6 4 13 46 17 93 48 661 750 1060 1341 761 280 -141 473 -425 500
-737 11 -132 7 -125 85 -125 47 0 69 4 73 13 9 23 -2 163 -18 243 -32 151
-116 342 -182 412 -7 7 -13 17 -13 22 0 19 -190 198 -258 243 -126 84 -274
144 -422 173 -68 12 -294 12 -367 -1z"/>
<path d="M1938 2805 c-2 -1 -35 -5 -74 -8 -300 -26 -580 -253 -682 -553 -32
-93 -50 -230 -38 -279 6 -23 10 -24 76 -24 39 1 70 4 71 7 13 176 26 231 80
338 129 260 422 403 710 348 193 -37 366 -167 459 -345 22 -43 41 -82 42 -86
0 -5 2 -12 3 -18 19 -66 27 -110 31 -160 2 -33 5 -66 6 -72 2 -15 115 -18 137
-4 18 11 9 159 -14 246 -82 305 -344 546 -646 594 -67 11 -157 20 -161 16z"/>
<path d="M1892 2318 c-7 -7 -12 -16 -12 -20 0 -10 -64 -185 -85 -233 -7 -16
-59 -149 -115 -295 -55 -146 -108 -280 -116 -298 -15 -32 -14 -34 57 -185 39
-83 76 -158 82 -165 18 -23 -3 -26 -51 -8 -26 10 -53 18 -59 19 -7 0 -13 3
-13 6 0 3 -20 15 -45 26 -25 11 -45 23 -45 27 0 5 -5 8 -11 8 -25 0 -148 106
-209 180 -25 30 -48 57 -51 60 -10 8 -58 91 -80 140 -35 75 -42 94 -46 119 -2
14 -8 32 -14 42 -5 10 -9 27 -9 38 0 21 -3 21 -350 21 l-350 0 0 -73 0 -73
145 0 c135 1 179 -3 175 -14 -2 -8 33 -122 53 -170 6 -14 10 -28 9 -32 -1 -5
3 -8 8 -8 6 0 10 -7 10 -15 0 -8 14 -37 30 -65 16 -28 30 -53 30 -55 0 -12
-44 -54 -52 -49 -5 3 -7 1 -6 -3 4 -12 -113 -129 -125 -125 -5 1 -6 -2 -3 -7
4 -5 -4 -17 -16 -25 -12 -9 -20 -18 -17 -20 43 -49 444 -446 449 -446 4 0 15
11 26 24 10 14 21 23 26 20 4 -3 8 -1 8 4 0 5 37 46 81 91 58 58 85 79 92 72
6 -6 19 -11 29 -11 10 0 18 -4 18 -10 0 -5 9 -10 20 -10 11 0 20 -3 20 -7 0
-6 78 -44 100 -49 3 0 18 -6 34 -13 16 -6 36 -13 45 -15 9 -2 25 -6 36 -10 51
-19 50 -15 51 -172 2 -178 1 -174 15 -174 5 0 8 4 5 9 -7 10 20 9 30 -2 13
-13 46 -8 38 6 -6 9 -4 9 8 -1 13 -10 17 -10 21 0 4 10 6 10 6 1 1 -7 8 -13
17 -13 9 0 12 5 8 13 -6 9 -4 9 7 0 15 -15 33 -17 25 -4 -7 10 20 9 30 -2 12
-12 46 -8 38 5 -5 7 -3 8 7 2 24 -14 51 -16 43 -2 -6 10 -5 10 7 2 19 -15 71
-15 62 0 -4 6 1 5 11 -3 14 -12 21 -13 38 -2 15 9 23 10 31 2 16 -16 50 -14
41 1 -6 11 -4 11 7 1 7 -7 21 -13 31 -13 10 0 18 6 18 13 0 8 4 7 10 -3 8 -13
13 -13 31 -2 11 8 18 9 14 3 -3 -6 0 -11 8 -11 22 0 25 14 25 150 1 179 1 190
10 188 16 -3 82 15 82 23 0 5 3 8 8 7 14 -5 97 27 181 69 l83 42 110 -110 c60
-60 111 -109 114 -109 7 0 444 439 444 446 0 4 -49 56 -109 116 -70 70 -108
114 -104 124 3 8 9 14 14 14 5 0 9 5 9 12 0 16 52 122 65 130 5 4 7 8 2 8 -4
0 0 16 8 36 8 20 12 40 9 45 -3 5 -1 9 4 9 5 0 15 20 21 45 6 25 17 45 24 46
6 1 75 2 152 4 167 2 165 2 165 16 0 5 -4 8 -9 5 -5 -4 -7 3 -4 14 3 11 10 17
16 13 6 -3 3 4 -6 17 -11 16 -13 29 -6 47 5 13 9 26 9 29 0 2 -161 3 -357 2
-232 -2 -358 -7 -357 -13 1 -5 -3 -21 -8 -35 -5 -14 -12 -36 -14 -49 -3 -14
-8 -29 -12 -35 -3 -6 -7 -15 -8 -21 -3 -21 -54 -122 -86 -172 -81 -127 -227
-256 -362 -322 -37 -18 -75 -34 -84 -36 -10 -2 -36 -10 -59 -19 -52 -18 -53
-17 -12 79 5 11 17 43 27 70 10 28 23 59 27 70 5 11 9 22 9 25 1 3 9 26 19 53
l19 47 -178 445 c-98 245 -183 445 -188 445 -7 0 -10 -39 -9 -112 1 -62 2
-211 2 -330 l1 -217 39 -22 c69 -38 83 -113 31 -168 -17 -17 -38 -32 -48 -33
-9 0 -24 -2 -32 -3 -29 -2 -79 28 -96 60 -23 44 -13 96 27 129 17 14 37 26 45
26 13 0 14 46 13 330 -1 182 -5 333 -9 335 -4 2 -12 -1 -18 -7z"/>
</g>
</svg>
